<?xml version="1.0" standalone="no"?><!DOCTYPE svg PUBLIC "-//W3C//DTD SVG 1.1//EN" "http://www.w3.org/Graphics/SVG/1.1/DTD/svg11.dtd"><svg t="1520524729762" class="icon" style="" viewBox="0 0 1024 1024" version="1.1" xmlns="http://www.w3.org/2000/svg" p-id="6697" xmlns:xlink="http://www.w3.org/1999/xlink" width="200" height="200"><defs><style type="text/css"></style></defs><path d="M832 948.3H384.2v-345c0-30.7 25.1-55.7 56-55.7h335.9c30.9 0 56 24.9 56 55.7v345z" fill="#F2F2F2" p-id="6698"></path><path d="M492.4 889H111.7V620c0-15.4 12.5-27.8 28-27.8h324.7c15.5 0 28 12.5 28 27.8v269z" fill="#F2F2F2" p-id="6699"></path><path d="M928.1 657V514.2c0-30.2-24.7-54.7-55-54.7H791c-8.6 0-15.4 8.1-13.8 16.5l11 57.7H669.8c20.6-6.4 40.1-16 57.8-28.3 17.4-12.2 33-27.1 45.9-43.9 8.3-10.8 15.6-22.5 21.7-34.8 6.8 3.2 14.3 4.9 22 4.9 28.3 0 51.3-22.9 51.3-51s-23-51-51.3-51h-1c0-0.6 0-1.3-0.1-1.9h23.5c7.7 0 14-6.2 14-13.9v-37.1c0-7.7-6.3-13.9-14-13.9H813c-14.2-79.6-74.9-144.5-153.5-164.3V76.4c0-7.7-6.3-13.9-14-13.9h-74.6c-7.7 0-14 6.2-14 13.9v22.1c-78.6 19.9-139.4 84.8-153.5 164.3h-26.5c-7.7 0-14 6.2-14 13.9v37.1c0 7.7 6.3 13.9 14 13.9h23.5c0 0.6 0 1.3-0.1 1.9h-1c-28.3 0-51.3 22.9-51.3 51s23 51 51.3 51c7.7 0 15.2-1.7 22-4.9 10.1 20.6 23.8 39.5 40.1 55.7 15.1 15 32.6 27.7 51.5 37.5 10.8 5.6 22.1 10.2 33.7 13.8H440.2c-29.1 0-55 18-65.3 44.5H139.7c-23.2 0-42 18.7-42 41.7v150.3c0 7.7 6.3 13.9 14 13.9s14-6.2 14-13.9V657.4h352.7v217.7H125.7v-30.6c0-7.7-6.3-13.9-14-13.9s-14 6.2-14 13.9v30.6H74.4c-7.7 0-14 6.2-14 13.9v31.5c0 23 18.8 41.7 42 41.7h587.7c7.7 0 14-6.2 14-13.9s-6.3-13.9-14-13.9H541.3c1.6-4.4 2.4-9 2.4-13.9V889c0-7.7-6.3-13.9-14-13.9h-23.3V620c0-23-18.8-41.7-42-41.7h-57.8c7.8-10.2 20.1-16.7 33.5-16.7h101.2l19.1 72.6-18.5 220.2c-0.4 4.7 1.6 9.2 5.3 12.1l52.3 40.8c5 3.9 12.3 3.9 17.3 0l52.3-40.8c3.7-2.9 5.7-7.4 5.3-12.1l-18.5-220.2 19.1-72.6h118.6l18.3 96c-17.9 4.8-31.1 21-31.1 40.3v103.9c0 21.4 16.4 39.2 37.3 41.5v91.2h-53.2c-7.7 0-14 6.2-14 13.9s6.3 13.9 14 13.9H832c7.7 0 14-6.2 14-13.9v-22.7c8 4.5 17.2 7 27.1 7 27.8 0 50.8-20.1 54.5-47.3 0.3-1.2 0.5-2.5 0.5-3.8v-38.9c19.1-3.9 33.6-20.7 33.6-40.9V697.9c0-20.2-14.4-37-33.6-40.9z" fill="" p-id="6700"></path><path d="M526 290.7c-7.7 0-14-6.2-14-13.9s6.3-13.9 14-13.9h30.8v-127c-44.7 28.1-77.1 73.9-87.2 127.4 6.1 1.5 10.7 7 10.7 13.5 0 7.6-6.2 13.8-13.8 13.9-0.1 2.8-0.2 5.6-0.2 8.4H414c0-2.8 0.1-5.6 0.2-8.4h-23.5v9.3h434.8v-9.3H526z" fill="#F7D04A" p-id="6701"></path><path d="M466.3 299c0-2.8 0.1-5.6 0.2-8.4H414.2c-0.1 2.8-0.2 5.6-0.2 8.4h52.3z" fill="#F7D04A" p-id="6702"></path><path d="M431.7 262.9h34.5c1.1 0 2.3 0.2 3.3 0.4 10.1-53.6 42.5-99.3 87.2-127.4v-8.5c-63 18.7-111.6 71.1-125 135.5z" fill="#F3B41B" p-id="6703"></path><path d="M900 880.3c-1.3 13.9-12.8 24.4-26.9 24.4-14.1 0-25.7-10.5-26.9-24.4 0-0.3-0.1-0.6-0.1-1v-35.8h54.1v35.8c-0.1 0.4-0.1 0.7-0.2 1z" fill="#E5E5E5" p-id="6704"></path><path d="M846 561.9a55 55 0 0 0 27.1 7.1c9.8 0 19.1-2.6 27.1-7.1v94.3H846v-94.3z" fill="#E5E5E5" p-id="6705"></path><path d="M440.2 547.6c-30.9 0-56 24.9-56 55.7v345.1h290.5L464 547.6h-23.8z" fill="" p-id="6706"></path><path d="M465.4 445.1v-98.3c45.9 14.5 93.8 21.8 142.8 21.8 49 0 96.8-7.3 142.8-21.8v98.3c-33 42.6-84.7 70-142.8 70s-109.9-27.4-142.8-70z" fill="#FEE7BE" p-id="6707"></path><path d="M832 621.8h82.1V875H832z" fill="" p-id="6708"></path><path d="M180.8 592.1h-41.1c-15.5 0-28 12.5-28 27.8v269h41.1V620c0-15.4 12.5-27.9 28-27.9z" fill="" p-id="6709"></path><path d="M648.6 454.6c6-4.8 7-13.6 2.1-19.6-4.9-6-13.7-6.9-19.7-2.1-9.1 7.3-19.1 8-22.9 8-11.6 0-19.9-5.6-22.9-8.1-6-4.8-14.8-3.9-19.7 2.1-4.9 6-3.9 14.7 2.1 19.6 6.6 5.3 20.7 14.2 40.5 14.2 8.5 0.1 25.1-1.8 40.5-14.1zM684.6 398.3h9.3c7.7 0 14-6.2 14-13.9s-6.3-13.9-14-13.9h-9.3c-7.7 0-14 6.2-14 13.9s6.3 13.9 14 13.9zM531.6 370.5h-9.3c-7.7 0-14 6.2-14 13.9s6.3 13.9 14 13.9h9.3c7.7 0 14-6.2 14-13.9s-6.3-13.9-14-13.9z" fill="" p-id="6710"></path><path d="M933.7 801.8c0 7.7-6.3 13.9-14 13.9h-97c-7.4 0-13.5-5.7-13.9-13h30.7c7.7 0 14-6.2 14-13.9s-6.3-13.9-14-13.9h-30.8v-9.3h30.8c7.7 0 14-6.2 14-13.9s-6.3-13.9-14-13.9h-30.8v-9.3h30.8c7.7 0 14-6.2 14-13.9s-6.3-13.9-14-13.9h-30.8v-2.8c0-7.7 6.3-13.9 14-13.9h97c7.7 0 14 6.2 14 13.9v103.9z" fill="#FEE7BE" p-id="6711"></path><path d="M825.2 487.3c-4.5 8-7.1 17.1-7.1 26.9v26.4l-10.2-53.3h17.3z" fill="#999999" p-id="6712"></path><path d="M900.1 514.2c0 14.8-12.1 26.9-27.1 26.9-14.9 0-27.1-12.1-27.1-26.9 0-14.8 12.1-26.9 27.1-26.9 15 0 27.1 12.1 27.1 26.9z" fill="#CCCCCC" p-id="6713"></path><path d="M630.9 619h-45.6l-15.1-57.5H646zM608.1 878.7l-37.7-29.4 17-202.4h41.4l17 202.4z" fill="#EB6836" p-id="6714"></path><path d="M399.1 403.8c-12.9 0-23.3-10.4-23.3-23.2 0-12.8 10.5-23.2 23.3-23.2 0.7 0 1.4 0 2 0.1 1.6 15 4.7 29.5 9.3 43.3-3.4 2-7.2 3-11.3 3z" fill="#FEE7BE" p-id="6715"></path><path d="M715.5 327.8c-34.9 8.6-70.8 13-107.4 13-36.6 0-72.5-4.4-107.4-13h214.8z" fill="#F3B41B" p-id="6716"></path><path d="M584.8 90.3h46.7v172.5h-46.7zM784.5 262.9H659.4V127.4c63.1 18.7 111.8 71.1 125.1 135.5z" fill="#F7D04A" p-id="6717"></path><path d="M840.4 380.7c0 12.8-10.5 23.2-23.3 23.2-4 0-7.9-1-11.4-3 4.6-13.9 7.8-28.4 9.3-43.3 0.7-0.1 1.4-0.1 2-0.1 13 0 23.4 10.4 23.4 23.2z" fill="#FEE7BE" p-id="6718"></path><path d="M788.1 333.3c0 0.9 0.1 1.9 0.1 2.8 0 19.9-3.3 39-9.3 56.9v-56c3.1-1.2 6.1-2.4 9.2-3.7zM428 336.1c0-0.9 0.1-1.9 0.1-2.8 3.1 1.3 6.2 2.5 9.3 3.7v56c-6.1-17.8-9.4-37-9.4-56.9z" fill="#666666" p-id="6719"></path><path d="M467.2 606.3c6.4 1.3 11.2 6.9 11.2 13.6v9.6H125.7V620c0-6.7 4.8-12.3 11.2-13.6 0.9-0.2 1.9-0.3 2.8-0.3h324.7c1 0 1.9 0.1 2.8 0.2z" fill="#62C9CC" p-id="6720"></path><path d="M178.9 682.1c-7.7 0-14 6.2-14 13.9v141c0 7.7 6.3 13.9 14 13.9h231.4c7.7 0 14-6.2 14-13.9s-6.3-13.9-14-13.9H192.9V696c0-7.6-6.3-13.9-14-13.9z" fill="" p-id="6721"></path><path d="M220 799c5.4 0 10.5-3.1 12.8-8.3l17-38.7 22.8 27.2c5 6 14.3 6.6 20.1 1.4l30.2-27.1 28.8 14.3c5.6 2.8 12.4 1.5 16.6-3.1l37.3-40.8c5.2-5.7 4.8-14.5-0.9-19.7-5.7-5.2-14.6-4.8-19.8 0.9l-30.2 33-27.7-13.7c-5.1-2.6-11.3-1.7-15.6 2.1l-26.5 23.7-28-33.4c-6.5-7.8-19.5-6-23.6 3.3l-26.1 59.4c-4 9 2.8 19.5 12.8 19.5z" fill="" p-id="6722"></path></svg>