<?xml version="1.0" encoding="utf-8"?>
<!-- Svg Vector Icons : http://www.sfont.cn -->
<!DOCTYPE svg PUBLIC "-//W3C//DTD SVG 1.1//EN" "http://www.w3.org/Graphics/SVG/1.1/DTD/svg11.dtd">
<svg version="1.1" xmlns="http://www.w3.org/2000/svg" xmlns:xlink="http://www.w3.org/1999/xlink" x="0px" y="0px" viewBox="0 0 1000 1000" enable-background="new 0 0 1000 1000" xml:space="preserve">
<metadata> Svg Vector Icons : http://www.sfont.cn </metadata>
<g><g transform="matrix(1 0 0 -1 0 1008)"><path d="M745,298c0,38.2-13.8,71.1-41.3,98.7S643.2,438,605,438H255V158h350c38.2,0,71.1,13.8,98.7,41.3C731.2,226.9,745,259.8,745,298z M710,718c0,38.2-13.8,71.1-41.3,98.7C641.1,844.2,608.2,858,570,858H255V578h315c38.2,0,71.1,13.8,98.7,41.3C696.2,646.9,710,679.8,710,718z M885,298c0-77.1-27.4-143.1-82.2-197.8C748.1,45.4,682.1,18,605,18H115v980h455c77.1,0,143.1-27.4,197.8-82.2C822.6,861.1,850,795.1,850,718c0-88.1-37.3-155.2-111.8-201.3c45.4-18.8,81.2-47.2,107.4-85.1S885,349.2,885,298z"/></g></g>
</svg>