<?xml version="1.0" encoding="utf-8"?>
<!-- Svg Vector Icons : http://www.sfont.cn -->
<!DOCTYPE svg PUBLIC "-//W3C//DTD SVG 1.1//EN" "http://www.w3.org/Graphics/SVG/1.1/DTD/svg11.dtd">
<svg version="1.1" xmlns="http://www.w3.org/2000/svg" xmlns:xlink="http://www.w3.org/1999/xlink" x="0px" y="0px" viewBox="0 0 1000 1000" enable-background="new 0 0 1000 1000" xml:space="preserve">
<metadata> Svg Vector Icons : http://www.sfont.cn </metadata>
<g><path d="M648.5,845.1c82.2-46.2,141-129.2,153.4-226.9c60.8-5.4,108.7-55.9,108.7-118.1c0-61.3-46.4-111.1-105.9-117.8v-67.6C804.6,146.4,668.2,10,500,10h-26.5c-168.2,0-304.6,136.4-304.6,304.6v67.6C109.4,388.8,63,438.7,63,500c0,62.2,47.9,112.7,108.7,118.1c12.8,100.6,74.6,185.7,160.6,230.9C215.7,873.7,110.9,922.7,27.5,990h90.7C223.6,923.7,356,884.1,500,884.1c144,0,276.4,39.6,381.8,105.9h90.7C884.5,919,772.9,868.1,648.5,845.1z M804.6,579.5V408.7c44.9,6.5,79.5,44.7,79.5,91.3c0,46.9-34.9,85.1-80,91.4C804.1,587.4,804.6,583.5,804.6,579.5z M89.5,500c0-46.7,34.6-84.8,79.5-91.3v170.8c0,4,0.4,7.9,0.6,11.9C124.4,585.2,89.5,546.9,89.5,500z M473.5,831.1c-139,0-251.6-112.6-251.6-251.6V342c155,66.2,344.3-146.6,344.3-146.6c56.3,75,138.8,83.6,182.4,82.2c1.8,12.1,3,24.4,3,37v264.9c0,139-112.6,251.6-251.6,251.6H473.5z"/><path d="M500,698.6c-55.5,0-101.7-33.8-115-79.5h-27.8c13.5,60.4,72.3,105.9,142.8,105.9c70.5,0,129.3-45.5,142.8-105.9H615C601.7,664.8,555.5,698.6,500,698.6z"/><path d="M301.4,447c0,21.9,17.8,39.7,39.7,39.7c21.9,0,39.7-17.8,39.7-39.7l0,0c0-21.9-17.8-39.7-39.7-39.7C319.1,407.3,301.4,425.1,301.4,447z"/><path d="M592.7,447c0,21.9,17.8,39.7,39.7,39.7s39.7-17.8,39.7-39.7c0-21.9-17.8-39.7-39.7-39.7S592.7,425.1,592.7,447z"/></g>
</svg>