<?xml version="1.0" encoding="utf-8"?>
<!-- Svg Vector Icons : http://www.sfont.cn -->
<!DOCTYPE svg PUBLIC "-//W3C//DTD SVG 1.1//EN" "http://www.w3.org/Graphics/SVG/1.1/DTD/svg11.dtd">
<svg version="1.1" xmlns="http://www.w3.org/2000/svg" xmlns:xlink="http://www.w3.org/1999/xlink" x="0px" y="0px" viewBox="0 0 1000 1000" enable-background="new 0 0 1000 1000" xml:space="preserve">
<metadata> Svg Vector Icons : http://www.sfont.cn </metadata>
<g><path d="M759.3,71.3c-107.4,0-194.5,82.3-194.5,183.7c0,79.9,54.3,147.2,129.7,172.5v11.3c0,33.8-29,61.3-64.8,61.3H370.3c-22.9,0-44.5,4.4-64.8,11.2v-145c75.4-25.3,129.7-92.6,129.7-172.5C435.2,92.3,348.1,10,240.7,10C133.2,10,46.1,92.3,46.1,193.7c0,79.9,54.3,147.2,129.7,172.5v267.5c-75.4,25.3-129.7,92.6-129.7,172.5c0,101.5,87.1,183.7,194.5,183.7c107.4,0,194.5-82.3,194.5-183.7c0-73.2-45.8-135.4-111.4-164.8c11.8-11.6,28.2-18.9,46.5-18.9h259.4c107.4,0,194.5-82.3,194.5-183.7v-11.3c75.4-25.3,129.7-92.6,129.7-172.5C953.9,153.5,866.8,71.3,759.3,71.3L759.3,71.3z M240.7,132.5c35.8,0,64.8,27.4,64.8,61.3s-29,61.3-64.8,61.3c-35.8,0-64.8-27.4-64.8-61.3C175.8,159.9,204.8,132.5,240.7,132.5z M240.7,867.5c-35.8,0-64.8-27.4-64.8-61.3c0-33.8,29-61.3,64.8-61.3c35.8,0,64.8,27.4,64.8,61.3C305.5,840.1,276.5,867.5,240.7,867.5z M759.3,316.2c-35.8,0-64.8-27.4-64.8-61.2s29-61.3,64.8-61.3c35.8,0,64.9,27.4,64.9,61.3S795.2,316.2,759.3,316.2z"/></g>
</svg>