<?xml version="1.0" encoding="utf-8"?>
<!-- Svg Vector Icons : http://www.sfont.cn -->
<!DOCTYPE svg PUBLIC "-//W3C//DTD SVG 1.1//EN" "http://www.w3.org/Graphics/SVG/1.1/DTD/svg11.dtd">
<svg version="1.1" xmlns="http://www.w3.org/2000/svg" xmlns:xlink="http://www.w3.org/1999/xlink" x="0px" y="0px" viewBox="0 0 1000 1000" enable-background="new 0 0 1000 1000" xml:space="preserve">
<metadata> Svg Vector Icons : http://www.sfont.cn </metadata>
<g><g transform="translate(0.000000,511.000000) scale(0.100000,-0.100000)"><path d="M3894.6,4165.9c-163.4-44.6-252.5-112.5-751.2-589.9l-481.7-462.6H1743c-532.6,0-965.5-8.5-1031.2-21.2c-244-46.7-441.3-199.5-545.3-420.1l-57.3-121l-6.4-2926.1C96.4-3625.7,87.9-3422,238.6-3649c42.4-65.8,118.8-142.2,184.6-186.7c222.8-148.5-93.4-137.9,4576.9-137.9c4672.4,0,4356.2-10.6,4576.9,140c59.4,42.4,144.3,125.2,184.6,184.6c148.5,216.4,142.1,44.6,135.8,3284.7l-6.4,2915.5l-57.3,121c-104,220.7-301.3,373.4-545.3,420.1c-65.8,12.7-498.6,21.2-1018.5,21.2l-903.9,2.1l-475.3,458.3c-263.1,250.4-511.4,479.5-553.8,505c-178.2,112.5-222.8,116.7-1324,114.6C4272.3,4193.5,3964.6,4185,3894.6,4165.9z M6114.1,3726.7c120.9-65.8,239.8-182.5,666.3-666.3l301.3-339.5l948.5-10.6l948.5-10.6l116.7-55.2c163.4-76.4,263.1-169.7,333.1-311.9l59.4-121V-430.1v-2641.7l-59.4-121c-67.9-137.9-188.9-256.7-331-322.5l-97.6-44.6H5000.1H1000.4l-97.6,44.6c-142.2,65.8-263.1,184.6-331,322.5l-59.4,121v2705.4V2339l50.9,89.1c61.5,106.1,167.6,186.7,314,235.5c87,27.6,248.3,34,1082.2,42.4l980.3,6.4l311.9,354.4c524.1,594.1,596.2,659.9,783,706.6c36.1,8.5,494.4,14.8,1018.5,12.7l954.9-4.2L6114.1,3726.7z"/><path d="M8081.1,1982.5c-97.6-29.7-248.3-169.8-299.2-275.8c-29.7-63.7-44.6-133.7-44.6-222.8c0-222.8,91.2-377.7,278-481.7c93.4-50.9,140-61.5,252.5-61.5c220.7,2.1,384.1,99.7,481.7,294.9c65.8,129.4,74.3,316.2,17,452c-44.6,110.3-212.2,263.1-324.6,297.1C8342.1,2014.3,8178.7,2014.3,8081.1,1982.5z"/><path d="M4684,1575.1c-466.8-87-833.9-299.2-1137.3-651.4C3219.9,546,3050.1-7.9,3109.5-502.3c89.1-766,589.9-1370.7,1338.9-1616.9c169.8-57.3,201.6-59.4,551.7-59.4s381.9,2.1,551.7,59.4c524.1,171.9,912.4,502.9,1152.2,978.2c479.6,957,57.3,2132.5-929.4,2580.2C5462.7,1579.3,5006.5,1636.6,4684,1575.1z M5348.1,1019.1c358.6-89.1,700.2-367.1,874.2-708.7c129.5-258.9,171.9-636.6,104-929.4c-55.2-227.1-188.9-458.3-371.3-640.8c-513.5-511.4-1328.3-532.6-1863-48.8c-322.5,290.7-466.8,645.1-445.6,1097c19.1,352.2,142.2,623.8,403.2,884.8C4389,1012.8,4868.5,1140.1,5348.1,1019.1z"/></g></g>
</svg>