<?xml version="1.0" encoding="utf-8"?>
<!-- Svg Vector Icons : http://www.sfont.cn -->
<!DOCTYPE svg PUBLIC "-//W3C//DTD SVG 1.1//EN" "http://www.w3.org/Graphics/SVG/1.1/DTD/svg11.dtd">
<svg version="1.1" xmlns="http://www.w3.org/2000/svg" xmlns:xlink="http://www.w3.org/1999/xlink" x="0px" y="0px" viewBox="0 0 1000 1000" enable-background="new 0 0 1000 1000" xml:space="preserve">
<metadata> Svg Vector Icons : http://www.sfont.cn </metadata>
<g><path d="M91.9,91.3l816.1,816.1L91.9,91.3z"/><path d="M908.1,989.4c-21,0-41.9-8-57.9-24L34,149.3c-32-32-32-83.9,0-115.9c32-32,83.9-32,115.9,0L966,849.5c32,32,32,83.9,0,115.9C950,981.4,929,989.4,908.1,989.4z"/><path d="M908.1,93.8L93.2,908.7L908.1,93.8z"/><path d="M93.2,990.6c-21,0-41.9-8-57.9-24c-32-32-32-83.9,0-115.9L850.1,35.9c32-32,83.9-32,115.9,0c32,32,32,83.9,0,115.9L151.1,966.6C135.1,982.6,114.1,990.6,93.2,990.6z"/></g>
</svg>