<?xml version="1.0" encoding="utf-8"?>
<!-- Svg Vector Icons : http://www.sfont.cn -->
<!DOCTYPE svg PUBLIC "-//W3C//DTD SVG 1.1//EN" "http://www.w3.org/Graphics/SVG/1.1/DTD/svg11.dtd">
<svg version="1.1" xmlns="http://www.w3.org/2000/svg" xmlns:xlink="http://www.w3.org/1999/xlink" x="0px" y="0px" viewBox="0 0 1000 1000" enable-background="new 0 0 1000 1000" xml:space="preserve">
<metadata> Svg Vector Icons : http://www.sfont.cn </metadata>
<g><g transform="translate(0.000000,511.000000) scale(0.100000,-0.100000)"><path d="M323.5,4351.8c-99.6-53.6-183.8-162.8-206.8-275.8c-15.3-68.9-19.2-1024.5-15.3-3209.6l5.7-3111.9l53.6-90c34.5-59.4,84.3-109.2,143.6-143.6l90-53.6l1691-5.7l1689-3.8l1.9-63.2c9.6-392.6-107.2-775.6-321.7-1057.1l-74.7-95.8l-204.9-5.7l-204.9-5.7V-3969v-201.1H5000h2029.9v201.1v201.1h-201.1h-199.2l-76.6,101.5c-101.5,136-222.1,383-270,553.5c-23,82.3-46,227.9-51.7,354.3l-11.5,214.5l1692.9,5.7c1863.3,5.7,1736.9-1.9,1863.3,122.5c126.4,128.3,116.8-153.2,122.5,3282.4c3.8,2282.7,0,3138.7-15.3,3213.4c-24.9,116.8-103.4,216.4-212.6,273.9c-72.8,36.4-157,36.4-4674.6,36.4C486.3,4388.2,392.5,4388.2,323.5,4351.8z M9500.3,1546.3V-914.5H5000H499.7v2460.8v2460.8H5000h4500.3V1546.3z M5095.8-1747.6c61.3-32.6,114.9-116.8,114.9-181.9c0-101.5-109.2-210.7-210.7-210.7c-65.1,0-149.4,53.6-181.9,114.9c-36.4,70.9-36.4,120.6,0,191.5C4871.7-1730.3,4990.4-1694,5095.8-1747.6z"/><path d="M2244.3,3145.3c-626.2-132.1-1105-584.1-1277.3-1206.5c-53.6-191.5-49.8-612.8,7.7-810c91.9-321.7,226-542,469.2-771.8c174.3-166.6,354.3-275.8,580.3-350.5c444.3-147.4,865.6-113,1290.7,105.3c158.9,80.4,371.5,245.1,360,277.7c-3.8,7.7-258.5,270-568.8,582.2l-563,566.9l578.3,580.2l580.3,580.3l-103.4,88.1c-151.3,128.3-346.6,235.6-551.5,304.5c-162.8,51.7-210.7,59.4-450,65.1C2449.2,3160.6,2290.2,3154.9,2244.3,3145.3z M2336.2,2718.3c122.6-63.2,199.2-178.1,208.7-317.9c3.8-61.3-1.9-145.5-15.3-183.8c-36.4-109.2-151.3-212.6-277.7-249c-155.1-46-271.9-15.3-392.6,103.4c-180,174.3-180,404.1,0,578.3C2001.1,2787.2,2156.2,2810.2,2336.2,2718.3z"/><path d="M2006.8,2501.9c-88.1-88.1-84.3-206.8,7.7-293c51.7-47.9,180-53.6,239.4-11.5c97.7,67,105.3,243.2,13.4,316C2194.5,2570.8,2070,2565.1,2006.8,2501.9z"/><path d="M4013.8,1906.3c-158.9-82.3-256.6-262.3-227.9-421.3c28.7-168.5,162.8-306.4,329.4-340.9c151.3-30.6,348.5,72.8,425.1,222.1c72.8,141.7,34.5,365.8-78.5,471.1C4354.6,1935,4134.4,1969.5,4013.8,1906.3z"/><path d="M5239.4,1906.3c-158.9-82.3-258.5-266.2-229.8-423.2c30.6-168.5,170.4-308.3,339-339c158.9-28.7,344.7,72.8,425.1,233.6c65.1,130.2,21.1,360-86.2,459.6C5580.2,1935,5360,1969.5,5239.4,1906.3z"/><path d="M6465,1906.3c-158.9-82.3-258.5-266.2-229.8-423.2c30.6-168.5,170.4-308.3,339-339c158.9-28.7,344.7,72.8,425.1,233.6c65.1,130.2,21.1,360-86.2,459.6C6805.9,1935,6585.6,1969.5,6465,1906.3z"/><path d="M7690.6,1906.3c-158.9-82.3-258.5-266.2-229.8-423.2c30.6-168.5,170.4-308.3,339-339c158.9-28.7,344.7,72.8,425.1,233.6c65.1,130.2,21.1,360-86.2,459.6C8031.5,1935,7811.2,1969.5,7690.6,1906.3z"/></g></g>
</svg>