<?xml version="1.0" encoding="utf-8"?>
<!-- Svg Vector Icons : http://www.sfont.cn -->
<!DOCTYPE svg PUBLIC "-//W3C//DTD SVG 1.1//EN" "http://www.w3.org/Graphics/SVG/1.1/DTD/svg11.dtd">
<svg version="1.1" xmlns="http://www.w3.org/2000/svg" xmlns:xlink="http://www.w3.org/1999/xlink" x="0px" y="0px" viewBox="0 0 1000 1000" enable-background="new 0 0 1000 1000" xml:space="preserve">
<metadata> Svg Vector Icons : http://www.sfont.cn </metadata>
<g><g transform="matrix(1 0 0 -1 0 1008)"><path d="M920,823V193c0-36.3-15.9-66.9-47.6-91.9c-31.8-25-72.6-42.9-122.5-54c-49.9-11-94.8-18.6-134.7-22.8S536.9,18,500,18s-75.3,2.1-115.2,6.3S300,36.1,250.1,47.2c-49.9,11-90.7,29-122.5,54C95.9,126.1,80,156.7,80,193v630c0,36.3,15.9,66.9,47.6,91.9c31.8,25,72.6,42.9,122.5,54c49.9,11,94.8,18.6,134.7,22.8c39.9,4.2,78.3,6.3,115.2,6.3s75.3-2.1,115.2-6.3c39.9-4.2,84.7-11.8,134.7-22.8c49.9-11,90.7-29,122.5-54C904.1,889.9,920,859.3,920,823z M780,207.6v128.3C707.4,310.6,614.1,298,500,298s-207.4,12.6-280,37.9V207.6c25.9-17.5,67.4-30.1,124.4-37.9c57-7.8,108.9-11.7,155.6-11.7c46.7,0,98.5,3.9,155.6,11.7C712.6,177.4,754.1,190.1,780,207.6z M780,487.6v128.3C707.4,590.6,614.1,578,500,578s-207.4,12.6-280,37.9V487.6c25.9-17.5,67.4-30.1,124.4-37.9S453.3,438,500,438c46.7,0,98.5,3.9,155.6,11.7S754.1,470.1,780,487.6z M780,767.6v40.8c-25.9,17.5-67.4,30.1-124.4,37.9S546.7,858,500,858c-46.7,0-98.5-3.9-155.6-11.7s-98.5-20.4-124.4-37.9v-40.8c25.9-17.5,67.4-30.1,124.4-37.9c57-7.8,108.9-11.7,155.6-11.7c46.7,0,98.5,3.9,155.6,11.7C712.6,737.4,754.1,750.1,780,767.6z"/></g></g>
</svg>