<?xml version="1.0" encoding="utf-8"?>
<!-- Svg Vector Icons : http://www.sfont.cn -->
<!DOCTYPE svg PUBLIC "-//W3C//DTD SVG 1.1//EN" "http://www.w3.org/Graphics/SVG/1.1/DTD/svg11.dtd">
<svg version="1.1" xmlns="http://www.w3.org/2000/svg" xmlns:xlink="http://www.w3.org/1999/xlink" x="0px" y="0px" viewBox="0 0 1000 1000" enable-background="new 0 0 1000 1000" xml:space="preserve">
<metadata> Svg Vector Icons : http://www.sfont.cn </metadata>
<g><path d="M818.2,990H181.8C87.1,990,10,912.9,10,818.1V181.8C10,87.1,87.1,10,181.8,10h636.3C912.9,10,990,87.1,990,181.8v636.3C990,912.9,912.9,990,818.2,990z M181.8,35.6c-80.7,0-146.3,65.6-146.3,146.3v636.3c0,80.7,65.6,146.3,146.3,146.3h636.3c80.7,0,146.3-65.6,146.3-146.3V181.8c0-80.7-65.6-146.3-146.3-146.3H181.8z"/><path d="M491.7,446.8c0-0.1,0.1-0.1,0.1-0.2c-0.1-0.7-0.3-1.2-0.3-1.6C491.6,445.6,491.7,446.2,491.7,446.8L491.7,446.8z M614.4,580.7L614.4,580.7C614.4,580.7,614.3,580.7,614.4,580.7C614.3,580.7,614.3,580.7,614.4,580.7L614.4,580.7z M617.5,581.1c-0.8-0.1-2.5,0.1-3.1-0.4C614,582.1,614.6,582.7,617.5,581.1L617.5,581.1z M498,181.5c-176.4,0-319.4,143-319.4,319.4c0,176.5,143,319.4,319.4,319.4c176.5,0,319.4-143,319.4-319.4C817.4,324.5,674.5,181.5,498,181.5L498,181.5z M702,306.3c-11,0.3-18.7,0.3-27.5,6.4c-3.5,2.5-6,5.8-10.5,7c-4.1,1.1-8.4,0.1-12.5,1.5c-14.5,4.9-12.2,36-31.3,31.3c-9-2.2-15.3-12.8-19.8-19.7c-4-6.1-11.2-11.2-6.3-18.8c-2.3,0.6-4.6-0.1-6.8,0.3c3-6.7,13.3-6.2,15-9.6c4.3-8.6-11.7-9.5-16.2-10.7c5.4-5.8,8.2,2,13.6,0.7c5.2-1.3-2.7-8-5.8-8.9c-1.1-0.3-19.3,5-8.8-4.4c-13-8.3-26-16.6-39-24.9c-2.2,9.2,17.3,14.5,23.7,17.8c-1,3.8-6.9,9.4-11.5,7.8c-4.3-1.5-2.6-8.6-9-8c-4.6,10.7,9.8,7.6,11.1,14.2c1.5,7.5-5.5,4.3-8.1,4.2c-0.6,0-5.6-5.2-5.9-1.3c-0.3,4.6,8,2.8,8.5,7.5c-9.7,0.4-14.6-3.1-22.4-8.3c-9.2-6.1-13.8-5.5-25-5.5c3.4-1.4,8-2.4,10.8-4.6c1.6-1.2,7.7-7.2,8.1-8.5c1.7-5.7-0.1-5.3-5.6-9.1c-4.9-3.4-10.8-9.4-16.7-10.6c-21.5-4.3-6.6,19.4-22.9,22.6c0.2,0,0.6,0,0.8,0h-0.9c0,0,0,0,0.1,0c-3.7,0-10.8-1-13.3,1c-1.7,1.4-1.9,7-3.8,9.1c-3.4,3.6-8.5,4.3-12.6,7c-4,2.5-12.7,9.1-15,13.6c-8.6,16.4,19.3,21.5,29.9,26.3c4.8,2.2,18.8,5.2,21.4,8.8c3.5,4.9-3.1,9.4,4.3,12.8c2.3,1.1,7.2,1.3,9.2-0.9c3.2-3.7-1.3-4.5-2.1-8.8c-1.5-8.2,1-4.9,5.1-8c8.4-6.2,6.5-6.6,3.5-16.5c-1.4-4.6-6.7-17.4-2-20.8c6-4.4,18.9,2.4,23.6,3c5.4,0.7,8.5,8.2,11.4,11.2c2,2,5.5,6.3,8.9,5.9c5.5-0.8,3.1-5.5,6.3-7.7c8.5-5.8,10.7,2.1,14,10.1c3.2,7.5,6.2,10.2,11.8,15.1c2.6,2.3,14.1,10.2,13,15.1c-0.7,3.3-13.8,8.3-17.3,9.4c-12.8,4.1-36.8-6.6-39.4,13.7c5-1.8,19.2-13.4,23.4-7.9c1.9,2.5-1.5,6.1-0.8,8.6c2.5,7.4,8.2,4.8,14.1,3.7c-0.4,0.3-0.8,0.5-1.3,0.7c8.2-4.2,7.3-3.3,11.1-10.2c1.2-2.3,3-7.6,4.8-9.2c6-5.5,6.9-1.7,10.5,2.6c0.9,1.1,10.1,14.2,6.8,13.5c-10.6-2.2-20.8-1.9-29.5,3.9c-5.1,3.3-9.8,7.9-15.9,10.1c-1.5,0.5-12.2,1.6-11-0.3c1.9-2.7,8.3-4.5,10.7-7.3c-6.9-2.9-12.8,3.4-18.2,7.2c-5.8,2.7-7.2,7.9-12.1,12.4c-2.1,2-6.2,2.3-8.4,4.9c-2.1,2.5-2.3,6.4-4.3,8.8c-1.4,1.7-4.9,0.7-6.3,3.1c-1.9,3.3,1.7,6.3,0.9,8.7c-1.4,4.3-9.6,7.9-12.7,10.9c0.4-0.4,0.9-0.8,1.2-1.2c-3.1,3.3-7.1,5.7-9.6,9.6c1.1,5.4,4.7,18.2,3.7,21.1c-3.2,9.7-9.5-5.2-12.1-9.2c-8.9-13.3-26.5-4.4-38.5-3.3c-15.4,1.4-30.5,21.4-21,37.7c4.6,7.8,12.3,10.8,21.1,9c7.8-1.7,10.2-12.6,17.5-12.8c13.6-0.3,0.3,13.3-0.9,18.4c-1.1,4.6,1.7,5,6.5,6.2c3.5,0.9,8.6-1.5,11.6,0.5c1.9,1.2,1.8,8.2,4.5,6c-5.2,4.3-4,14.6,1.3,18.3c6,4.1,12.9,0.3,19.1,1.9c11.8,3,6.2-0.9,16.4-7.1c7-4.2,8.1,0.8,12.9,0.8c3.2,0,5.3-4.6,10.7-3.3c4.4,1.2,6.1,4.6,11.4,5.3c2.2,0.3,4.4-0.9,6.4-0.6c9.8,1.1,17.2,7.3,24.9,13c6.3,4.6,10.5,3.7,17.9,5.8c5.4,1.5,15.3,9.4,14.9,16.2c-0.1,1.2-4.8,7.4-5.6,10.1c1.4,0.9,11-1.2,13.8-1.4c-0.9,1-7.5,5.7-7.5,3.2c0,1.2,4.6,3.8,5.7,4.6c3.4-11.1,9-4,15.8-1.2c5.8,2.3,12.8,2.5,18.9,3.9c5.2,1.2,16.6,4.8,20.5,9c4.6,5.1,1.4,13.4-2,18.5c-4.5,6.6-11.2,9.2-14,17c-2.2,6.2-0.6,12.4-1.8,19.3c-1.7,9.3-3.1,6.1-9.1,11.7c-5.1,4.8-0.1,4-7,7c-6.9,3-12.9,2.2-17.8,9.8c0.2-0.5,0.4-0.9,0.5-1.5c-2,2.8-3,8.6-4,10.5c-2.4,4.8-5.7,7.9-9.5,11.9c-1.4,1.5-14.9,19.9-15.7,18.4c-1-1.9-11.5,1.9-12.1-0.8c0.4,2.3-0.1,1.5,2.5,2.8c-2.4,15.1-8.8,17.3-23.6,17.5c1.2,7.2-5.4,5.8-8.5,9.7c-1.8,2.3-2.7,8.7-3.9,11.6c-0.8,1.9-6.5,9.3-6.5,10.7c0,1.4,1.9,3.3,3.7,5.2c-10.4,2.1-21,3.5-31.9,4.4c2-2.6,2.6-4.8-3.9-5.1c1.7-4.6,5.8-7.4,7.5-11.9c0.8-2.1,0.1-3,0.8-5.1c2.3-7.3,1.3-4.5,0-10.2c-3.1-13.3,1.1-17,4.7-29.2c3.7-12.6,3.4-28.8,5.8-42.3c1.1-6.5,3-19.9,0.8-26c-2.6-6.9-13.7-12.3-18.7-16.9c-7.2-6.6-11.1-13.7-16.4-21.8c-2.7-4.1-5.8-8.1-8-12.7c-4.5-9.6,0-3.9,0.8-9.6c0.7-5.5-0.7-10.4,1.5-16.1c2.4-6.3,8.4-10.3,10.4-16.7c1.8-5.8,0.5-12.9-5.4-14.8c-3.3-1.1-6.9,1.4-10.1,0.9c-4.6-0.7-9.7-4.2-13.3-6.9c-5-3.8-6.9-10-12.2-13.6c-4.4-3-7.6-1.2-12.4-2.6c-5-1.5-8.1-7.6-12.1-9.5c-6-2.9-9.4,1.2-15.8,0.4c-5.4-0.7-13.7-6.7-18.7-9c-10.3-4.6-16.6-9.7-20.7-20.1c-3.5-8.9-8.6-13.1-14.7-20.6c-6.1-7.5-8-14-17.5-16c-1.1-0.2,2.3,8,2.6,8.6c3.4,6.2,8.4,11.9,12.5,17.8c6,8.6,3.5,10.2-2.6,1.9c-7-9.5-15.1-19-21.1-29c-2.3-3.8-1.9-6.2-5.6-9.8c-3.6-3.5-8.4-5.2-12.1-8.5c-13.2-11.9-15.6-27.8-14.1-44.7c0.5-5.5,2.5-9.9,1.6-15.3c-0.7-4.4-3.3-8-6.6-11.3c-1-1.7-3.7-5.8-3.8-6c-3-5-5.3-9.9-10.1-14c-2.7-2.4-9.8-7.9-16.5-12.5c29.9-37.4,69.1-66.9,114-85.3c0.3,2.3,1.3,4.5,2.8,6.6c3.7,5.5,7.2,5.1,14.4,6.6c-0.8,8.4-10.6,8.4-17.2,7.5c-7.9-1.1-16.2-3.7-23.1,3.2c3.8,2.3,14.2,11.2,12.8,1.9c7.6-0.4,14.9-0.6,22.2,0.3c3,0.4,12.9,3.7,15.6,2.2c1.1-0.6,2.3-6.2,3.6-8c-2.1,0-4.4-1-6.5-0.8c4.9-6.3,9.8-1.4,16.1,1.5c-6.9,4.2-2.9,14.3,3.9,6.1c5.5-6.6-1.4-11.5-8.3-15.4c7.1-8.9,11.4-9.7,18,0.3c1.1-6.2,6.1-3.7,11.3-3.2v-1.6c-2.3,0.1-4.7-1.2-7-1c5.3-8.4,1.9-10.4,9.5-13.2c6-2.1,23.2-0.1,25.3-5.7c-12,2.3-26.5,2.9-37.4,8.3c-4.6,2.3-10.2,9.8-14.9,4.9c-4.8-4.9,3.4-12.9,7.6-15.3h-1c19-4.1,38.7-6.3,58.9-6.3c13.1,0,25.9,1,38.5,2.7c-4.3,2.3-1.1,3.9-4.3,6.2c-6,4.4-16.8,8.2-24,11c9.2,0,31.3,8.6,35.6-4.3c-2.9-0.5-5.9-0.9-8.9-1.4c5.5-3.7,11.7-6.6,18.2-8.8c58.4,11.5,110.3,41.2,149.8,82.7C702.6,306.3,702.3,306.3,702,306.3L702,306.3z M753.8,418.5c0.5-1.1,1.7-1.5,2.3-2.4c1.1-1.9,0.9-3.2,2.1-4.9c1.4-1.8,3.3-2.3,4.9-3.7c0.7-0.6,1-1.1,1.3-1.7c4.7,13.2,8.5,26.8,11.3,40.7c-0.1,0.1-0.2,0.3-0.3,0.3c-0.7,0.5-5.2,1.2-6.1,1.2c-3.2,0.1-5.7-2-8-4c-2.4-2.1-5.2-4.8-6.9-7.5c-1.8-2.8-0.7-5.8-0.6-9C753.9,424.8,752.6,421,753.8,418.5L753.8,418.5z M757.4,565c-5.5-4.8-11.9-11.2-15.8-17.3c-4.2-6.6-1.6-13.3-1.3-20.9c0.3-6.3-2.8-15.3-0.2-21c1.2-2.6,4.1-3.5,5.2-5.6c2.5-4.5,2-7.6,5-11.5c3.2-4.2,7.7-5.2,11.2-8.4c3.8-3.4,3.7-6.2,6.2-10.6c1.7-3.2,5.9-8.6,9.8-11.4c2.2,14,3.3,28.3,3.3,42.8c0,25.2-3.4,49.6-9.6,72.8C766,572.5,761.6,568.6,757.4,565L757.4,565z"/></g>
</svg>