<?xml version="1.0" encoding="utf-8"?>
<!-- Svg Vector Icons : http://www.sfont.cn -->
<!DOCTYPE svg PUBLIC "-//W3C//DTD SVG 1.1//EN" "http://www.w3.org/Graphics/SVG/1.1/DTD/svg11.dtd">
<svg version="1.1" xmlns="http://www.w3.org/2000/svg" xmlns:xlink="http://www.w3.org/1999/xlink" x="0px" y="0px" viewBox="0 0 1000 1000" enable-background="new 0 0 1000 1000" xml:space="preserve">
<metadata> Svg Vector Icons : http://www.sfont.cn </metadata>
<g><g transform="translate(0.000000,511.000000) scale(0.100000,-0.100000)"><path d="M3153.3,1697.8C267.7-1187.9,100-1357.9,100-1435.9c0-77.9,68.5-151.1,1081.5-1161.8c918.6-918.6,1093.4-1081.5,1173.6-1102.8c132.2-35.4,2574-35.4,2722.7,0c106.3,26,231.4,148.8,2467.7,2380.4C9881.1,1013,9900,1031.9,9900,1126.3c0,92.1-18.9,113.3-1728.6,1825.4c-951.6,951.7-1759.3,1747.5-1794.7,1766.4c-35.4,18.9-87.4,33.1-118.1,33.1C6218.5,4751.1,5432.1,3978.9,3153.3,1697.8z M4426.2-720.4C5281-1575.2,5980-2283.6,5980-2297.8c0-11.8-226.7-248-500.6-524.2l-503-503H3724.8H2473.3l-944.6,944.6l-944.6,944.6L1717.6-302.4C2341,321,2855.8,831.1,2862.9,831.1S3573.7,132.1,4426.2-720.4z"/><path d="M822.6-4201.1c-33.1-40.1-61.4-87.4-61.4-106.3c0-66.1,66.1-165.3,129.9-193.6c87.4-40.2,5728.9-40.2,5804.4,0c125.2,66.1,151.2,217.3,52,314.1l-56.7,59H3786.2H884L822.6-4201.1z"/></g></g>
</svg>