<?xml version="1.0" encoding="utf-8"?>
<!-- Svg Vector Icons : http://www.sfont.cn -->
<!DOCTYPE svg PUBLIC "-//W3C//DTD SVG 1.1//EN" "http://www.w3.org/Graphics/SVG/1.1/DTD/svg11.dtd">
<svg version="1.1" xmlns="http://www.w3.org/2000/svg" xmlns:xlink="http://www.w3.org/1999/xlink" x="0px" y="0px" viewBox="0 0 1000 1000" enable-background="new 0 0 1000 1000" xml:space="preserve">
<metadata> Svg Vector Icons : http://www.sfont.cn </metadata>
<g><path d="M958.9,435.3L588.7,47.6c-23-24-53.8-37.5-86.9-37.5c-33.1-0.2-64,12.9-87.2,36.8L41.6,432C3.2,471.8,8,506.2,14.3,520.7c4.4,10.2,19.6,38.3,63.5,38.4l54.5,0.3l-1.1,297.2c-0.2,67.5,48,131.3,117,131.5l62.5,0.2l95.7,0.3l0.2-69.8l1-244.8c0.1-33.8-5-52.6,29.5-52.5l62.5,0.3l62.5,0.3c34.5,0.1,29.3,18.9,29.2,52.6l-0.9,244.8l-0.2,69.9l95.6,0.3l62.6,0.2c68.9,0.3,117.7-63.1,117.9-130.6l1.1-297.2l54.5,0.2c43.9,0.2,59.2-27.9,63.8-38.1C992,509.8,997,475.4,958.9,435.3L958.9,435.3z"/></g>
</svg>