<?xml version="1.0" encoding="utf-8"?>
<!-- Svg Vector Icons : http://www.sfont.cn -->
<!DOCTYPE svg PUBLIC "-//W3C//DTD SVG 1.1//EN" "http://www.w3.org/Graphics/SVG/1.1/DTD/svg11.dtd">
<svg version="1.1" xmlns="http://www.w3.org/2000/svg" xmlns:xlink="http://www.w3.org/1999/xlink" x="0px" y="0px" viewBox="0 0 1000 1000" enable-background="new 0 0 1000 1000" xml:space="preserve">
<metadata> Svg Vector Icons : http://www.sfont.cn </metadata>
<g><g transform="matrix(1 0 0 -1 0 1008)"><path d="M546.7,692.7c49.3-22.7,88.8-57.2,118.6-103.5C695.1,542.8,710,492.4,710,438c0-29.2-3.9-56.6-11.7-82.2c-7.8-25.6-20.9-50.9-39.4-75.8c-18.5-25-34.2-44.7-47.2-59.3c-13-14.6-34.2-35.8-63.7-63.7c-29.5-27.9-49.4-47-59.8-57.4C432.6,45.2,366.5,18,290,18c-77.1,0-143.1,27.4-197.8,82.2C37.4,154.9,10,220.9,10,298c0,16.2,1.3,31.8,3.9,46.7c2.6,14.9,5.2,27.9,7.8,38.9c2.6,11,8.3,23.5,17,37.4c8.8,13.9,14.7,24.3,18,31.1c3.2,6.8,11.7,17.7,25.3,32.6c13.6,14.9,22.2,24.3,25.8,28.2c3.6,3.9,14.1,14.4,31.6,31.6s27.9,27.4,31.1,30.6l99.2-99.2c-4.5-4.5-14.9-14.3-31.1-29.2c-16.2-14.9-27.7-26.1-34.5-33.5c-6.8-7.5-15.4-18-25.8-31.6c-10.4-13.6-17.7-27.2-21.9-40.8c-4.2-13.6-6.3-27.9-6.3-42.8c0-38.2,13.8-71.1,41.3-98.7c27.5-27.5,60.4-41.3,98.7-41.3c38.9,0,71.9,13.6,99.2,40.8l140,140c27.2,27.2,40.8,60.3,40.8,99.2c0,27.2-7.5,52.5-22.4,75.8c-14.9,23.3-34.7,40.5-59.3,51.5L546.7,692.7z M710,998c77.1,0,143.1-27.4,197.8-82.2C962.6,861.1,990,795.1,990,718c0-16.2-1.3-31.8-3.9-46.7c-2.6-14.9-5.2-27.9-7.8-38.9c-2.6-11-8.3-23.5-17-37.4s-14.7-24.3-18-31.1c-3.2-6.8-11.7-17.7-25.3-32.6c-13.6-14.9-22.2-24.3-25.8-28.2c-3.6-3.9-14.1-14.4-31.6-31.6s-27.9-27.4-31.1-30.6l-99.2,99.2c5.8,5.8,16.4,15.7,31.6,29.7c15.2,13.9,26.6,25,34,33.1c7.5,8.1,16,18.8,25.8,32.1s16.9,26.7,21.4,40.3c4.5,13.6,6.8,27.9,6.8,42.8c0,38.9-13.8,71.9-41.3,99.2C781.1,844.4,748.2,858,710,858c-38.9,0-71.9-13.6-99.2-40.8l-140-140C443.6,649.9,430,616.9,430,578c0-27.2,7.5-52.5,22.4-75.8c14.9-23.3,34.7-40.5,59.3-51.5l-58.3-127.4c-49.3,22.7-88.8,57.2-118.6,103.5C304.9,473.2,290,523.6,290,578c0,76.5,27.2,142.6,81.7,198.3c10.4,10.4,29.5,30.3,57.4,59.8c27.9,29.5,49.1,50.7,63.7,63.7s34.4,28.7,59.3,47.2c25,18.5,50.2,31.6,75.8,39.4C653.4,994.1,680.8,998,710,998z"/></g></g>
</svg>