<?xml version="1.0" encoding="utf-8"?>
<!-- Svg Vector Icons : http://www.sfont.cn -->
<!DOCTYPE svg PUBLIC "-//W3C//DTD SVG 1.1//EN" "http://www.w3.org/Graphics/SVG/1.1/DTD/svg11.dtd">
<svg version="1.1" xmlns="http://www.w3.org/2000/svg" xmlns:xlink="http://www.w3.org/1999/xlink" x="0px" y="0px" viewBox="0 0 1000 1000" enable-background="new 0 0 1000 1000" xml:space="preserve">
<metadata> Svg Vector Icons : http://www.sfont.cn </metadata>
<g><g transform="matrix(1 0 0 -1 0 1008)"><path d="M239.7,936.8V538.6h-91.9v275.6l-57-76.6l-69.8,61.3l120.8,137.8H239.7z M315.4,171.1V79.3H25.3v104.6c15.9,7.9,33.3,17.7,52.3,29.3c19,11.6,40.4,25.7,64.2,42.1c23.8,16.4,43.5,33.6,59.1,51.5s23.4,33.9,23.4,48.1c0,19.3-5.7,34.3-17,45.1c-11.3,10.8-26.4,16.2-45.1,16.2c-32.3,0-54.4-15.6-66.4-46.8L10,401.7c12.5,33.5,32.2,59.5,59.1,78.3c26.9,18.7,58,28.1,93.2,28.1c44.2,0,81-14.5,110.2-43.4c29.2-28.9,43.8-65.5,43.8-109.7c0-59-44.2-120.2-132.7-183.8H315.4z M377.5,324.3V201.8H990v122.5H377.5z M990,814.3H377.5V691.8H990V814.3z M377.5,569.3V446.8H990v122.5H377.5z"/></g></g>
</svg>