<?xml version="1.0" encoding="utf-8"?>
<!-- Svg Vector Icons : http://www.sfont.cn -->
<!DOCTYPE svg PUBLIC "-//W3C//DTD SVG 1.1//EN" "http://www.w3.org/Graphics/SVG/1.1/DTD/svg11.dtd">
<svg version="1.1" xmlns="http://www.w3.org/2000/svg" xmlns:xlink="http://www.w3.org/1999/xlink" x="0px" y="0px" viewBox="0 0 1000 1000" enable-background="new 0 0 1000 1000" xml:space="preserve">
<metadata> Svg Vector Icons : http://www.sfont.cn </metadata>
<g><g transform="translate(0.000000,511.000000) scale(0.100000,-0.100000)"><path d="M329.7,4961.1C100,4887.1,100,4884.5,100,3820.3c0-1023.4,5.1-1059.1,163.3-1125.5c79.1-33.2,622.7-38.3,3986.4-38.3c3493.8,0,3902.1,5.1,3978.7,40.8c137.8,63.8,165.9,158.2,165.9,543.6v334.3h535.9h535.9V2222.7V870.1H6684.4H3902.6V308.6v-561.5h-153.1c-183.8,0-278.2-43.4-375.2-171l-71.5-91.9v-1983v-1983l71.5-91.9c132.7-173.5,171-183.8,758-183.8c599.7,0,666.1,17.9,786,199.1l68.9,104.6v1954.9v1954.9l-68.9,104.6c-89.3,135.3-204.2,186.3-413.4,186.3h-168.4v357.3v357.3h2781.8H9900v1760.9v1760.9h-750.3h-750.3l-10.2,405.8c-7.6,362.4-12.8,410.9-58.7,461.9c-117.4,132.7,71.5,127.6-4088.4,125C2111,4976.4,350.1,4968.7,329.7,4961.1z"/></g></g>
</svg>