<?xml version="1.0" encoding="utf-8"?>
<!-- Svg Vector Icons : http://www.sfont.cn -->
<!DOCTYPE svg PUBLIC "-//W3C//DTD SVG 1.1//EN" "http://www.w3.org/Graphics/SVG/1.1/DTD/svg11.dtd">
<svg version="1.1" xmlns="http://www.w3.org/2000/svg" xmlns:xlink="http://www.w3.org/1999/xlink" x="0px" y="0px" viewBox="0 0 1000 1000" enable-background="new 0 0 1000 1000" xml:space="preserve">
<metadata> Svg Vector Icons : http://www.sfont.cn </metadata>
<g><path d="M500,990C229.4,990,10,770.6,10,500C10,229.4,229.4,10,500,10c270.6,0,490,219.4,490,490C990,770.6,770.6,990,500,990 M500,71.2c-236.8,0-428.8,192-428.8,428.8c0,236.8,192,428.8,428.8,428.8c236.8,0,428.7-192,428.7-428.8C928.7,263.2,736.8,71.2,500,71.2 M783.8,519.3L367.6,758.1c-4.4,2.5-9.5,2.5-13.9,0c-4.4-2.6-6.9-6.9-6.9-12V268.6c0-5.1,2.5-9.4,6.9-12c4.4-2.5,9.4-2.5,13.9,0l416.2,238.7c4.4,2.6,7,6.9,7,12C790.8,512.5,788.2,516.8,783.8,519.3 M408.1,362.2v291l277.1-145.9L408.1,362.2z"/></g>
</svg>