<?xml version="1.0" encoding="utf-8"?>
<!-- Svg Vector Icons : http://www.sfont.cn -->
<!DOCTYPE svg PUBLIC "-//W3C//DTD SVG 1.1//EN" "http://www.w3.org/Graphics/SVG/1.1/DTD/svg11.dtd">
<svg version="1.1" xmlns="http://www.w3.org/2000/svg" xmlns:xlink="http://www.w3.org/1999/xlink" x="0px" y="0px" viewBox="0 0 1000 1000" enable-background="new 0 0 1000 1000" xml:space="preserve">
<metadata> Svg Vector Icons : http://www.sfont.cn </metadata>
<g><path d="M500,10C229.4,10,10,229.4,10,500c0,270.6,219.4,490,490,490c270.6,0,490-219.4,490-490C990,229.4,770.6,10,500,10z M499.9,941C256.4,941,58.9,743.6,58.9,500c0-243.6,197.5-441.1,441.1-441.1C743.5,58.9,941,256.4,941,500C941,743.6,743.5,941,499.9,941z M389.7,304c-15.8,0-28.6,12.8-28.6,28.6v334.8c0,15.8,12.8,28.6,28.6,28.6s28.6-12.8,28.6-28.6V332.6C418.3,316.8,405.5,304,389.7,304z M610.3,304c-15.8,0-28.6,12.8-28.6,28.6v334.8c0,15.8,12.8,28.6,28.6,28.6c15.8,0,28.6-12.8,28.6-28.6V332.6C638.8,316.8,626,304,610.3,304z"/></g>
</svg>