<?xml version="1.0" encoding="utf-8"?>
<!-- Svg Vector Icons : http://www.sfont.cn -->
<!DOCTYPE svg PUBLIC "-//W3C//DTD SVG 1.1//EN" "http://www.w3.org/Graphics/SVG/1.1/DTD/svg11.dtd">
<svg version="1.1" xmlns="http://www.w3.org/2000/svg" xmlns:xlink="http://www.w3.org/1999/xlink" x="0px" y="0px" viewBox="0 0 1000 1000" enable-background="new 0 0 1000 1000" xml:space="preserve">
<metadata> Svg Vector Icons : http://www.sfont.cn </metadata>
<g><g transform="translate(0.000000,511.000000) scale(0.100000,-0.100000)"><path d="M5931.4,4098.6c0-13.4,286.1-2019.8,297.6-2081.3l9.6-59.5l-326.4-13.4c-1848.9-71-3321.6-649-4316.1-1691.5c-889-929.3-1372.8-2183-1482.2-3828.5c-9.6-163.2-15.4-299.5-13.4-303.3c3.8-3.8,17.3,67.2,30.7,159.3c138.2,990.7,758.4,1791.4,1812.5,2340.5c793,414.7,1797.1,685.4,2979.8,806.4c357.1,34.6,879.3,67.2,1128.9,67.2h188.2L6229-567c-23-138.3-297.6-2077.4-291.8-2079.3c7.7-7.7,3957.1,3344.6,3962.9,3363.8c3.8,11.5-833.3,731.5-1860.5,1601.3C7012.3,3186.6,6117.6,3945,6052.3,4002.6C5985.1,4060.2,5931.4,4104.4,5931.4,4098.6z"/></g></g>
</svg>