<?xml version="1.0" encoding="utf-8"?>
<!-- Svg Vector Icons : http://www.sfont.cn -->
<!DOCTYPE svg PUBLIC "-//W3C//DTD SVG 1.1//EN" "http://www.w3.org/Graphics/SVG/1.1/DTD/svg11.dtd">
<svg version="1.1" xmlns="http://www.w3.org/2000/svg" xmlns:xlink="http://www.w3.org/1999/xlink" x="0px" y="0px" viewBox="0 0 1000 1000" enable-background="new 0 0 1000 1000" xml:space="preserve">
<metadata> Svg Vector Icons : http://www.sfont.cn </metadata>
<g><path d="M167,30.8v176.6H10v293.2v292c0,97.6,79.1,176.6,176.6,176.6h626.8c97.7,0,176.7-79.1,176.7-176.6v-49.1V500.6V207.4V30.8H167z M67.7,542.3V263.8H167v456.4c0,90.4-31.7,122.7-57.1,134C83.7,824.7,67.7,786,67.7,743.4V542.3z M931.2,542.3v201.1c0,92.2-74.8,167-166.9,167H234.4c-18.3,0-35.9-3.1-52.3-8.5c47.7-41.9,41.3-158.4,41.3-158.4v-55.1V263.8h3.7v-56.4h-3.7V89.6h707.8V542.3z"/><path d="M303.1,207.4h531.1V281H303.1V207.4z"/><path d="M303.1,368H500v49.1H303.1V368z"/><path d="M558.3,368h276v343.7h-276V368L558.3,368z"/><path d="M303.1,466.4H500v49.1H303.1V466.4L303.1,466.4z"/><path d="M303.1,563.4H500v49H303.1V563.4z"/><path d="M303.1,662.6H500v49.1H303.1V662.6z"/></g>
</svg>