<?xml version="1.0" encoding="utf-8"?>
<!-- Svg Vector Icons : http://www.sfont.cn -->
<!DOCTYPE svg PUBLIC "-//W3C//DTD SVG 1.1//EN" "http://www.w3.org/Graphics/SVG/1.1/DTD/svg11.dtd">
<svg version="1.1" xmlns="http://www.w3.org/2000/svg" xmlns:xlink="http://www.w3.org/1999/xlink" x="0px" y="0px" viewBox="0 0 1000 1000" enable-background="new 0 0 1000 1000" xml:space="preserve">
<metadata> Svg Vector Icons : http://www.sfont.cn </metadata>
<g><g><path d="M410.9,10c54.3,0,106.2,10.6,155.7,31.8c49.5,21.2,92.2,49.7,127.9,85.4c35.7,35.7,64.2,78.4,85.4,127.9s31.8,101.4,31.8,155.7c0,46.6-7.6,91.3-22.8,134s-36.8,81.4-64.9,116.2l253,252.7c8.6,8.6,12.9,19.1,12.9,31.7c0,12.8-4.2,23.4-12.7,31.8c-8.5,8.5-19.1,12.7-31.8,12.7c-12.5,0-23.1-4.3-31.7-12.9l-252.7-253c-34.8,28.1-73.5,49.7-116.2,64.9s-87.4,22.8-134,22.8c-54.3,0-106.2-10.6-155.7-31.8c-49.5-21.2-92.2-49.7-127.9-85.4c-35.7-35.7-64.2-78.4-85.4-127.9C20.6,517.1,10,465.2,10,410.9c0-54.3,10.6-106.2,31.8-155.7c21.2-49.5,49.7-92.2,85.4-127.9c35.7-35.7,78.4-64.2,127.9-85.4C304.7,20.6,356.6,10,410.9,10z M410.9,99.1c-42.2,0-82.6,8.2-121.1,24.7c-38.5,16.5-71.7,38.6-99.5,66.5s-50,61-66.5,99.5c-16.5,38.5-24.7,78.9-24.7,121.1c0,42.2,8.2,82.6,24.7,121.1s38.6,71.7,66.5,99.5c27.8,27.8,61,50,99.5,66.5c38.5,16.5,78.9,24.7,121.1,24.7c42.2,0,82.6-8.2,121.1-24.7c38.5-16.5,71.7-38.6,99.5-66.5c27.8-27.8,50-61,66.5-99.5c16.5-38.5,24.7-78.9,24.7-121.1c0-42.2-8.2-82.6-24.7-121.1c-16.5-38.5-38.6-71.7-66.5-99.5c-27.8-27.8-61-50-99.5-66.5S453.1,99.1,410.9,99.1z"/></g></g>
</svg>