<?xml version="1.0" encoding="utf-8"?>
<!-- Svg Vector Icons : http://www.sfont.cn -->
<!DOCTYPE svg PUBLIC "-//W3C//DTD SVG 1.1//EN" "http://www.w3.org/Graphics/SVG/1.1/DTD/svg11.dtd">
<svg version="1.1" xmlns="http://www.w3.org/2000/svg" xmlns:xlink="http://www.w3.org/1999/xlink" x="0px" y="0px" viewBox="0 0 1000 1000" enable-background="new 0 0 1000 1000" xml:space="preserve">
<metadata> Svg Vector Icons : http://www.sfont.cn </metadata>
<g><path d="M663.3,500c0-45.1-16-83.6-47.9-115.5c-31.9-31.9-70.4-47.9-115.5-47.9c-45.1,0-83.6,16-115.5,47.9c-31.9,31.9-47.9,70.4-47.9,115.5c0,45.1,16,83.6,47.9,115.5c31.9,31.9,70.4,47.9,115.5,47.9c45.1,0,83.6-16,115.5-47.9C647.4,583.5,663.3,545,663.3,500z M990,430.4v141.6c0,5.1-1.7,10-5.1,14.7s-7.7,7.4-12.8,8.3l-118,17.9c-8.1,23-16.4,42.3-24.9,58.1c14.9,21.3,37.6,50.6,68.3,88c4.2,5.1,6.4,10.4,6.4,16c0,5.6-1.9,10.4-5.8,14.7c-11.5,15.7-32.5,38.7-63.2,68.9s-50.6,45.3-60,45.3c-5.1,0-10.6-1.9-16.6-5.8l-88-68.9c-18.7,9.8-38.1,17.9-58.1,24.3c-6.8,57.8-13,97.4-18.5,118.7c-3,11.9-10.6,17.9-22.9,17.9H429.2c-6,0-11.2-1.8-15.6-5.4c-4.5-3.6-6.9-8.2-7.3-13.7l-17.9-117.4c-20.9-6.8-40-14.7-57.4-23.6l-90,68.3c-4.2,3.8-9.6,5.8-16,5.8c-6,0-11.3-2.3-16-7c-53.6-48.5-88.7-84.2-105.3-107.2c-3-4.2-4.5-9.1-4.5-14.7c0-5.1,1.7-10,5.1-14.7c6.4-8.9,17.2-23.1,32.5-42.4c15.3-19.4,26.8-34.4,34.5-45c-11.5-21.3-20.2-42.3-26.2-63.2L28.5,592.5c-5.5-0.8-10-3.5-13.4-8c-3.4-4.5-5.1-9.5-5.1-15V427.9c0-5.1,1.7-10,5.1-14.7c3.4-4.7,7.4-7.4,12.1-8.3l118.7-17.9c6-19.6,14.3-39.1,24.9-58.7c-17-24.3-39.8-53.6-68.3-88c-4.2-5.1-6.4-10.2-6.4-15.3c0-4.2,1.9-9.1,5.8-14.7c11.1-15.3,32-38.2,62.8-68.6c30.8-30.4,50.9-45.6,60.3-45.6c5.5,0,11.1,2.1,16.6,6.4l88,68.3c18.7-9.8,38.1-17.9,58.1-24.3c6.8-57.8,13-97.4,18.5-118.7c3-11.9,10.6-17.8,22.9-17.8h141.6c6,0,11.2,1.8,15.6,5.4c4.5,3.6,6.9,8.2,7.3,13.7l17.9,117.4c20.9,6.8,40,14.7,57.4,23.6l90.6-68.3c3.8-3.8,8.9-5.8,15.3-5.8c5.5,0,10.8,2.1,16,6.4c54.9,50.6,90,86.8,105.3,108.4c3,3.4,4.5,8.1,4.5,14c0,5.1-1.7,10-5.1,14.7c-6.4,8.9-17.2,23.1-32.5,42.4c-15.3,19.4-26.8,34.4-34.5,45c11.1,21.3,19.8,42.1,26.2,62.5l116.7,17.9c5.5,0.8,10,3.5,13.4,8C988.3,419.9,990,424.9,990,430.4L990,430.4z"/></g>
</svg>