<?xml version="1.0" standalone="no"?><!DOCTYPE svg PUBLIC "-//W3C//DTD SVG 1.1//EN" "http://www.w3.org/Graphics/SVG/1.1/DTD/svg11.dtd"><svg t="1520681395288" class="icon" style="" viewBox="0 0 1024 1024" version="1.1" xmlns="http://www.w3.org/2000/svg" p-id="5416" xmlns:xlink="http://www.w3.org/1999/xlink" width="48" height="48"><defs><style type="text/css"></style></defs><path d="M133.213 233.74v0zM886.905 309.101h-753.691c-41.623 0-75.364-33.741-75.364-75.361s33.743-75.361 75.364-75.361h753.691c41.623 0 75.364 33.741 75.364 75.361s-33.743 75.361-75.364 75.361zM133.213 516.363v0zM886.905 591.723h-753.691c-41.623 0-75.364-33.741-75.364-75.361s33.743-75.361 75.364-75.361h753.691c41.623 0 75.364 33.741 75.364 75.361s-33.743 75.361-75.364 75.361zM133.213 798.983v0zM886.905 874.346h-753.691c-41.623 0-75.364-33.741-75.364-75.361s33.743-75.361 75.364-75.361h753.691c41.623 0 75.364 33.741 75.364 75.361s-33.743 75.361-75.364 75.361z" p-id="5417"></path></svg>