<?xml version="1.0" encoding="utf-8"?>
<!-- Svg Vector Icons : http://www.sfont.cn -->
<!DOCTYPE svg PUBLIC "-//W3C//DTD SVG 1.1//EN" "http://www.w3.org/Graphics/SVG/1.1/DTD/svg11.dtd">
<svg version="1.1" xmlns="http://www.w3.org/2000/svg" xmlns:xlink="http://www.w3.org/1999/xlink" x="0px" y="0px" viewBox="0 0 1000 1000" enable-background="new 0 0 1000 1000" xml:space="preserve">
<metadata> Svg Vector Icons : http://www.sfont.cn </metadata>
<g><g transform="translate(0.000000,511.000000) scale(0.100000,-0.100000)"><path d="M2077.7,2433.3C989,1511.6,100,747.5,100,734c0-21.1,3947.6-3381.2,3959.2-3369.7c5.8,1.9-268.8,1941.2-291.9,2079.4l-11.5,61.4H3944c103.7,0,339.8-9.6,524.2-19.2c2519.1-142.1,4329.7-919.7,5045.9-2169.7c182.4-320.7,284.2-606.7,351.4-998.4l34.6-201.6l-9.6,192C9782.9-1548.9,9005.2,10.2,7569,956.7c-917.8,604.8-2104.4,944.7-3484.9,998.4l-326.4,13.4l9.6,59.5c25,136.3,297.6,2073.7,291.9,2075.6C4057.2,4105.6,3166.3,3354.9,2077.7,2433.3z"/></g></g>
</svg>