<?xml version="1.0" encoding="utf-8"?>
<!-- Svg Vector Icons : http://www.sfont.cn -->
<!DOCTYPE svg PUBLIC "-//W3C//DTD SVG 1.1//EN" "http://www.w3.org/Graphics/SVG/1.1/DTD/svg11.dtd">
<svg version="1.1" xmlns="http://www.w3.org/2000/svg" xmlns:xlink="http://www.w3.org/1999/xlink" x="0px" y="0px" viewBox="0 0 1000 1000" enable-background="new 0 0 1000 1000" xml:space="preserve">
<metadata> Svg Vector Icons : http://www.sfont.cn </metadata>
<g><g transform="matrix(1 0 0 -1 0 1008)"><path d="M220,210.5c0-29.2-10.2-54-30.6-74.4s-45.2-30.6-74.4-30.6c-29.2,0-54,10.2-74.4,30.6S10,181.3,10,210.5c0,29.2,10.2,54,30.6,74.4s45.2,30.6,74.4,30.6c29.2,0,54-10.2,74.4-30.6S220,239.7,220,210.5z M220,508c0-29.2-10.2-54-30.6-74.4C169,413.2,144.2,403,115,403c-29.2,0-54,10.2-74.4,30.6C20.2,454,10,478.8,10,508c0,29.2,10.2,54,30.6,74.4C61,602.8,85.8,613,115,613c29.2,0,54-10.2,74.4-30.6C209.8,562,220,537.2,220,508z M220,805.5c0-29.2-10.2-54-30.6-74.4s-45.2-30.6-74.4-30.6c-29.2,0-54,10.2-74.4,30.6S10,776.3,10,805.5c0,29.2,10.2,54,30.6,74.4c20.4,20.4,45.2,30.6,74.4,30.6c29.2,0,54-10.2,74.4-30.6C209.8,859.5,220,834.7,220,805.5z M990,298V158H290v140H990z M990,858V718H290v140H990z M990,578V438H290v140H990z"/></g></g>
</svg>