<?xml version="1.0" encoding="utf-8"?>
<!-- Svg Vector Icons : http://www.sfont.cn -->
<!DOCTYPE svg PUBLIC "-//W3C//DTD SVG 1.1//EN" "http://www.w3.org/Graphics/SVG/1.1/DTD/svg11.dtd">
<svg version="1.1" xmlns="http://www.w3.org/2000/svg" xmlns:xlink="http://www.w3.org/1999/xlink" x="0px" y="0px" viewBox="0 0 1000 1000" enable-background="new 0 0 1000 1000" xml:space="preserve">
<metadata> Svg Vector Icons : http://www.sfont.cn </metadata>
<g><path d="M978.1,990H500v-0.8H22c0,0-47.8-195.9,47.8-244.7c95.6-49,191.2-146.9,191.2-146.9s143.4,97.9,239,97.9c95.6,0,239-97.9,239-97.9s95.6,97.9,191.2,146.9C1025.9,793.4,978.1,990,978.1,990 M786.8,303.8L739,450.7h-43.7C653.9,527.8,585.6,597.6,500,597.6c-85.6,0-154-69.8-195.3-146.9H261l-47.8-146.9l47.8-48.9c0-8.7-1.1-39.9,0-49c4.2-57,18.7-117,47.8-146.9c17.6-18,55.1-17.3,87.4-12.6c18.6-13.2,38.4-23.5,59.3-29.6l-3.3-6.8c0,0,8.9,0.8,22.8,2.1c8.3-1.3,16.5-2.1,25-2.1c21.2,0,41.6,4.8,61.1,12.8c52.7,8.1,108.9,20,130,36.2C742.4,98.3,739,205.9,739,205.9H720c12.3,33.5,19.1,18.3,19.1,49L786.8,303.8z"/></g>
</svg>